<svg width="55" height="51" viewBox="0 0 55 51" fill="none" xmlns="http://www.w3.org/2000/svg">
<path d="M27.4941 49.9932C27.7671 49.59 28.1942 48.9809 28.5645 48.4658L29.0293 47.8281C30.6417 45.6672 32.5076 43.5363 34.6445 41.4092L35.5771 40.498C37.2132 38.9259 38.3482 37.8979 41.8564 34.7871C45.8371 31.2548 47.808 29.2723 49.4971 27.1299C52.2848 23.5952 53.6254 20.2697 53.9443 16.0557L53.9941 15.2012C54.0119 14.7854 53.9913 14.408 53.8584 13.2568C53.3943 9.24786 51.1352 5.59274 47.707 3.3291C45.9692 2.1836 43.8804 1.40426 41.9043 1.16211L41.9004 1.16113C40.5632 0.992741 39.8715 0.971354 39.3613 1.02832H39.3623C39.1486 1.05555 38.7074 1.10373 38.3926 1.1377H38.3916C34.7639 1.54443 31.3987 3.44858 29.0674 6.4209L28.8447 6.71191C28.757 6.8336 28.6744 6.94725 28.6064 7.04297C28.5716 7.09211 28.5445 7.13094 28.5254 7.15918C28.5044 7.19027 28.5057 7.19111 28.5156 7.17383L28.5127 7.17969L28.498 7.2041L28.3867 7.36426C28.3396 7.42307 28.2818 7.48537 28.2119 7.54395C28.0651 7.66695 27.8214 7.80753 27.4971 7.80762C27.1729 7.80762 26.9291 7.66692 26.7822 7.54395C26.6424 7.42676 26.5505 7.2954 26.4951 7.2041L26.4912 7.19629L26.4863 7.18848C26.2407 6.76635 25.4212 5.76533 24.7295 5.0791L24.7275 5.07715C22.6668 3.02044 19.9781 1.65475 17.1611 1.21289L16.6006 1.1377C16.293 1.10451 15.8653 1.0578 15.6465 1.03027C15.3031 0.991808 14.6891 0.990004 14.2793 1.03418L14.2686 1.03613C14.1136 1.05122 13.7187 1.09208 13.4551 1.11719H13.4561C8.2394 1.64755 3.6925 5.21015 1.88281 10.1309L1.71582 10.6113C1.3499 11.743 1.19643 12.5211 1.02051 14.3096H1.02148C0.949812 15.0574 1.06214 16.7958 1.28125 18.207L1.38184 18.7871C2.20137 23.0381 4.30008 26.6422 8.54297 30.8809L8.54199 30.8818C9.96887 32.3059 10.7723 33.0362 15.1328 36.873C20.4015 41.5063 23.2171 44.3759 26.0176 47.9844V47.9854C26.3277 48.3854 26.7476 48.9515 27.0938 49.4297C27.2444 49.6378 27.3823 49.8334 27.4941 49.9932ZM26.8076 6.13867C26.7968 6.15376 26.7901 6.16367 26.7881 6.16699L26.7891 6.16895C26.795 6.15894 26.8013 6.14894 26.8076 6.13867Z" stroke="#5A4F91" stroke-width="2"/>
<path d="M27.6777 34.3369V34.3359C28.3714 33.4205 29.1716 32.5222 30.083 31.6289L30.4805 31.2461C30.8271 30.9181 31.121 30.6466 31.5117 30.2969L33.123 28.8789C34.7807 27.4305 35.5739 26.6415 36.2471 25.8008C37.3424 24.4332 37.8554 23.1746 37.9785 21.5615L37.998 21.2334C38.0032 21.1142 38.0007 21.0005 37.9453 20.5283C37.7725 19.0585 36.9284 17.7069 35.6357 16.8662C34.9803 16.4408 34.19 16.1513 33.4541 16.0625H33.4512C32.8963 15.9937 32.6626 15.9926 32.5195 16.0088H32.5186C32.4191 16.021 32.2391 16.0405 32.1152 16.0537C30.7111 16.2095 29.406 16.955 28.5244 18.1211C28.4886 18.17 28.4581 18.2117 28.4326 18.2471L28.4102 18.2793L28.4111 18.2773C28.3753 18.3355 28.0956 18.8025 27.499 18.8027C26.9019 18.8027 26.6215 18.3351 26.5859 18.2773L26.5762 18.2617C26.5117 18.1526 26.2114 17.7823 25.9375 17.5146L25.9346 17.5117C25.109 16.7006 24.0132 16.1797 22.8809 16.0537L22.4805 16.0088C22.381 15.9978 22.1655 15.9966 22.0322 16.0107L22.0215 16.0117L21.6777 16.0459C19.6511 16.2515 17.8984 17.6551 17.2695 19.5557H17.2686C17.1672 19.8644 17.11 20.0966 17.0576 20.4922L17.0059 20.9521C16.9799 21.2264 17.0361 22.0441 17.1484 22.6211C17.4613 24.2193 18.2581 25.6035 19.9775 27.2949C20.4135 27.7234 20.7045 27.9927 21.5918 28.7676L22.707 29.7363C24.9245 31.6565 26.132 32.8653 27.335 34.3916V34.3926C27.3825 34.4529 27.4331 34.5234 27.4883 34.5957C27.5613 34.4958 27.6265 34.4047 27.6777 34.3369Z" stroke="#5A4F91" stroke-width="2"/>
</svg>
