<svg width="57" height="47" viewBox="0 0 57 47" fill="none" xmlns="http://www.w3.org/2000/svg">
<path d="M51.9 28.6083C50.7 27.9083 49.5 27.7083 48.3 27.1083C47.7 26.8083 47.3 26.2083 46.5 26.2083L46.2 24.2083C47 23.6083 47.6 22.9083 48.1 22.0083C48.5 21.3083 48.8 19.9083 49.1 19.5083C49.2 19.3083 49.7 19.2083 49.9 19.0083C50.8 18.2083 51.2 17.0083 50.8 15.9083C50.2 14.0083 50.4 13.9083 50.3 12.0083C50.2 10.5083 49.6 9.00832 48.6 7.80832C48.3 7.40832 46.9 6.30832 46.8 6.20832C46.8 6.10832 47.1 4.30832 46.8 3.40832C45.4 -1.59168 37.5 -0.891684 37.2 4.20832C37.2 4.80832 37.5 5.60832 37.4 6.00832C37.4 6.10832 36.7 6.40832 36.5 6.60832C34.9 8.00832 34 9.90832 33.9 12.1083C33.9 12.9083 34.2 14.1083 34.1 14.6083C34.1 14.9083 33.7 15.2083 33.5 15.5083C33.1 16.4083 33.2 17.3083 33.7 18.2083C34.1 18.8083 34.8 19.1083 35.1 19.5083C35.8 20.6083 35.8 21.8083 36.9 23.1083C37.1 23.4083 37.9 23.9083 38 24.1083C38.2 24.6083 38 25.4083 37.9 25.9083L30.5 29.4083C27.7 27.5083 24.4 27.0083 21.6 25.1083C21.6 24.5083 21.4 23.5083 21.6 23.0083C21.8 22.7083 22.9 21.7083 23.3 21.1083C23.9 20.1083 24 18.9083 24.4 18.2083C24.6 17.8083 25.4 17.6083 25.8 17.1083C26.7 15.9083 26.9 14.4083 25.8 13.1083C25.7 12.9083 25.3 12.9083 25.3 12.7083C25.2 12.1083 25.6 10.6083 25.6 9.90832C26.3 -2.89168 8.4 -0.691681 8 8.00832C8 8.70832 8.1 9.50832 8.2 10.2083C8.2 10.8083 8.7 12.0083 8.7 12.4083C8.7 12.8083 7.49999 13.5083 7.39999 14.6083C7.39999 15.3083 7.7 16.4083 8.2 17.0083C8.6 17.5083 9.4 17.8083 9.5 18.0083C9.7 18.3083 9.8 19.2083 10 19.7083C10.6 21.0083 11.3 22.0083 12.4 22.9083V25.1083C10.9 25.1083 9.89999 26.1083 8.79999 26.6083C7.29999 27.2083 5.69999 27.6083 4.29999 28.5083C-1.23978e-05 31.2083 0.1 35.0083 0 39.6083C0 41.7083 0 43.8083 0 45.8083C0 46.0083 0.199988 46.1083 0.299988 46.2083C0.599988 46.4083 5.3 46.4083 6 46.2083C8 46.0083 6.49999 44.7083 6.39999 44.1083C6.39999 43.7083 6.39999 41.8083 6.39999 41.4083C6.39999 41.0083 7.2 40.5083 7.5 39.9083C7.7 39.5083 7.69999 39.1083 7.89999 38.7083C8.19999 38.1083 8.79999 37.9083 8.79999 36.9083C8.79999 35.6083 7.79999 35.4083 7.59999 35.0083C7.09999 33.5083 8.9 27.3083 11 27.3083C11.3 27.3083 12.9 29.0083 13.3 29.4083C14.2 30.3083 15.4 32.0083 16.4 32.8083C17.2 33.5083 17.7 32.8083 18.3 32.1083C19.7 30.7083 20.9 29.1083 22.3 27.6083C22.7 27.2083 23 28.2083 23.1 28.5083C23.6 29.9083 23.5 31.5083 23.5 33.0083C21.5 33.8083 20.4 35.7083 21.3 37.8083C22.6 41.2083 27.7 40.0083 27.1 35.6083C26.9 33.9083 25.4 33.5083 25.3 33.0083C25 31.9083 25.6 29.8083 24.9 28.5083C27.9 29.3083 30.8 31.0083 31.5 34.2083L32.1 44.2083H28.7V39.9083C28.7 39.4083 27.2 39.4083 27.2 39.9083V44.3083C27.2 44.4083 26.3 45.1083 27 45.8083C27.1 46.0083 27.3 46.0083 27.4 46.0083C27.9 46.1083 32.9 46.0083 33.2 46.0083C33.4 46.0083 33.5 45.7083 33.6 45.6083L33.3 37.1083L34.2 38.2083C36.2 39.3083 38.5 37.9083 37.6 35.5083C37.3 34.7083 36.3 34.7083 36.2 33.8083C36.2 33.4083 36.2 27.5083 37.1 28.1083C37.1 28.3083 37.3 28.5083 37.4 28.7083C38 29.5083 41 34.0083 41.5 34.2083C42 34.4083 42.2 34.2083 42.6 34.0083C43.9 32.8083 45.3 30.1083 46.6 28.7083C46.6 28.7083 47 28.2083 47.1 28.3083C47.6 30.1083 47.4 32.1083 47.5 34.0083C44.6 35.1083 45.5 39.0083 48.7 38.5083C50.2 38.3083 50.9 36.5083 50.4 35.2083C50.2 34.6083 49.3 34.4083 49.2 33.9083L49 28.9083C52 29.9083 54.2 31.8083 54.6 35.1083L54.8 44.3083H51.8V41.0083C49.5 39.4083 50.3 43.2083 50.1 44.4083C50.1 44.7083 49.8 44.9083 49.8 45.2083C49.8 46.0083 50.2 46.1083 50.9 46.1083C51.8 46.1083 55.5 46.2083 56.1 46.1083C56.5 46.0083 56.7 45.6083 56.8 45.2083C55.8 39.2083 58.5 31.8083 52.1 28.3083L51.9 28.6083ZM6 35.4083C6 35.6083 5.59999 35.6083 5.39999 35.9083C4.59999 37.0083 4.29999 38.5083 5.79999 39.0083C5.49999 39.5083 5.49999 40.0083 5.39999 40.5083C5.39999 40.7083 5.1 40.9083 5 41.1083C4.7 42.3083 4.7 43.4083 4.7 44.7083H1.7C1.8 42.1083 1.5 39.3083 1.7 36.7083C1.7 36.0083 1.89999 34.9083 2.09999 34.2083C2.69999 31.8083 4.89999 30.1083 7.09999 29.3083C6.59999 30.9083 6.09999 32.5083 5.89999 34.1083C5.89999 34.5083 5.89999 35.1083 5.89999 35.4083H6ZM7.2 37.8083C6.9 38.2083 5.99999 37.8083 6.39999 37.0083C6.89999 36.0083 7.8 37.2083 7.2 37.8083ZM10.2 6.80832C12 1.80832 21.6 1.20832 23.7 6.40832C24.4 8.20832 24.1 9.70832 24 11.5083C23 11.0083 22.3 8.30832 21.2 8.40832C20.9 8.40832 19.8 9.40832 19.4 9.60832C17.9 10.3083 16.3 10.5083 14.7 10.0083C13.2 9.50832 13 8.10832 11.5 9.80832C11.1 10.3083 10.9 10.8083 10.6 11.3083C10.5 11.5083 10.6 11.6083 10.2 11.5083C10.2 9.90832 9.6 8.40832 10.2 6.80832ZM17.1 31.3083L13.3 27.3083V27.0083C14.2 26.3083 13.9 25.3083 13.9 24.3083C16 25.3083 17.8 25.3083 20 24.5083C20 25.6083 19.8 26.5083 20.8 27.3083L17 31.4083L17.1 31.3083ZM12.4 20.6083C11.6 19.5083 11.7 18.2083 11.2 17.2083C10.8 16.5083 9.59999 16.8083 9.29999 15.4083C8.99999 13.6083 10.4 14.6083 11.1 14.2083C11.6 13.8083 12.3 11.1083 12.8 11.0083C14.9 12.0083 17 12.3083 19.2 11.5083C19.7 11.3083 20.6 10.7083 20.9 10.7083C21.2 10.7083 21.2 10.7083 21.4 10.8083C21.4 10.8083 22.6 12.5083 22.7 12.6083C23 13.2083 22.8 14.3083 23.8 14.4083C24.3 14.4083 25 13.9083 25.1 15.0083C25.3 16.7083 23.8 16.5083 23.3 17.1083C22.8 17.7083 22.7 19.6083 21.9 20.7083C19.3 24.1083 15 24.1083 12.5 20.7083L12.4 20.6083ZM25.4 35.7083C26.4 37.5083 24.4 39.3083 23.2 38.0083C21.8 36.5083 24.2 33.5083 25.4 35.7083ZM34.8 34.7083C34.8 35.0083 34.3 35.1083 34.1 35.3083C33.8 35.6083 33.8 36.0083 33.5 36.2083C33.5 34.2083 32.7 32.6083 31.8 30.9083C32.8 30.2083 33.9 29.5083 35.2 29.3083C34.4 30.7083 35.2 33.5083 34.8 34.8083V34.7083ZM35.3 37.4083C34.8 37.1083 34.9 36.3083 35.4 36.2083C36.9 35.8083 36.4 38.0083 35.3 37.4083ZM45.3 5.20832C43.2 4.70832 41.3 4.50832 39.2 5.20832C38.5 0.608316 45.8 0.708316 45.3 5.20832ZM48.7 13.6083C46.9 13.1083 45.3 12.3083 43.9 11.1083C43.6 10.8083 43.4 10.3083 43 10.0083C41.7 9.20832 41.5 10.4083 40.8 11.0083C39.4 12.2083 37.5 13.1083 35.7 13.6083C35.1 4.00832 49.2 4.10832 48.7 13.6083ZM45.5 27.9083L42 32.6083L38.7 27.9083C39.5 27.0083 39.7 26.4083 39.5 25.1083C41.2 26.0083 42.9 25.9083 44.6 25.1083C44.6 26.0083 44.4 27.4083 45.4 27.7083V27.9083H45.5ZM37.4 21.0083C37.1 20.3083 37 19.2083 36.7 18.7083C36.2 17.9083 34.3 18.0083 35.2 16.1083C36.4 16.2083 36.3 15.5083 36.9 15.1083C37.5 14.7083 39.3 14.2083 40.2 13.6083C41 13.1083 41.6 12.6083 42.3 12.0083C43.3 12.6083 44.1 13.5083 45.1 14.0083C45.6 14.3083 47.6 14.9083 47.7 15.0083C47.9 15.2083 47.8 15.6083 48.2 15.8083C48.8 16.2083 49.6 15.6083 49.4 16.9083C49.2 18.3083 48.2 17.8083 47.7 18.4083C47.5 18.7083 47.2 20.0083 46.9 20.7083C44.9 24.8083 39.4 25.2083 37.4 20.9083V21.0083ZM48.6 37.3083C47 37.8083 47.1 35.6083 48.3 35.7083C49.1 35.7083 49.4 37.1083 48.6 37.3083Z" fill="#387ACB"/>
<path d="M10.5 36.5083C9.00002 38.5083 11.8 38.4083 13.1 38.0083C13.4 37.5083 13.3 37.0083 13.1 36.5083H10.5Z" fill="#387ACB"/>
</svg>
