<svg width="68" height="74" viewBox="0 0 68 74" fill="none" xmlns="http://www.w3.org/2000/svg">
<path d="M11.2113 28.1377C13.9314 28.3308 16.0686 30.4555 16.4571 33.1596V50.5431C15.4857 55.1787 11.5999 55.7581 7.51983 55.3718C3.43975 54.9855 0.525399 51.702 0.13682 48.0321C0.331109 43.976 -0.25176 39.5335 0.13682 35.4774C0.525399 31.4212 3.63403 28.524 7.32553 28.1377C7.32553 23.6952 7.71412 19.6391 9.46273 15.583C17.8172 -3.732 45.9892 -5.47033 57.0637 12.4926C68.1382 30.4555 60.9495 22.7295 60.7552 28.1377C64.641 28.7171 67.7496 31.8076 67.9439 35.6705C67.7496 39.5335 68.1382 43.7828 67.9439 47.839C67.7496 51.8951 64.4467 54.9855 60.5609 55.3718C59.978 60.3937 56.6751 64.643 52.0121 66.5745C47.3492 68.506 48.9035 67.5402 47.1549 67.9265C46.572 71.4032 43.4634 73.721 39.9662 73.9142C36.469 74.1073 35.109 73.9142 33.1661 73.9142C25.3945 73.3347 26.5602 63.8704 33.5546 62.5183C40.5491 61.1663 39.9662 62.3252 42.1034 62.5183C44.2405 62.7115 45.9892 63.6772 46.9606 65.6087C52.4007 65.2224 57.6465 61.3594 58.2294 55.5649H56.6751C54.7322 55.5649 52.0121 52.8608 51.8178 50.7362C51.8178 45.328 51.4293 39.5335 51.8178 34.1253C52.2064 28.7172 54.1493 28.3309 57.0637 28.3309H58.618C59.0066 22.5364 57.6465 17.1282 54.3436 12.4926C44.4348 -1.41419 22.0915 -0.448454 13.5428 14.2309C4.99405 28.9103 10.0456 23.309 10.2399 28.3309H11.5999H11.2113V28.1377ZM7.7141 30.4555C5.18834 30.6486 2.66258 32.9664 2.46829 35.4774C2.07971 39.5335 2.66258 43.976 2.46829 48.0321C2.85687 49.9636 4.2169 51.702 5.96551 52.4746C7.71411 53.2472 10.0456 53.054 11.4056 52.8609C12.7656 52.6677 14.1257 51.1225 14.32 49.7704V33.3527C13.7371 30.0692 10.4342 30.0692 7.7141 30.2623V30.4555ZM54.9265 51.8951C56.0922 53.2472 58.8123 53.054 60.5609 52.8609C63.2809 52.6677 65.6124 50.3499 65.8067 47.6458C65.4181 43.7828 66.1953 39.1472 65.8067 35.2842C65.4181 31.4212 63.0867 30.4555 60.3666 30.2623C57.6465 30.0692 54.5379 30.2623 53.955 33.5459C54.3436 38.7609 53.5665 44.3623 53.955 49.5773C54.3436 54.7924 54.3436 51.3157 54.9265 51.8951ZM34.3318 64.4498C29.8631 65.0293 27.9202 71.0169 33.3603 71.4032C38.8004 71.7895 40.3548 71.5963 42.1034 70.8237C45.6006 69.2785 46.1834 64.643 42.1034 64.2567C38.0233 63.8704 36.2747 64.2567 34.5261 64.2567H34.3318V64.4498Z" fill="#387ACB"/>
</svg>
